<svg version="1.0" xmlns="http://www.w3.org/2000/svg"
     width="51pt" height="48pt" viewBox="0 0 513.000000 487.000000"
     preserveAspectRatio="xMidYMid meet">

    <defs>
        <linearGradient id="topToBottomGradient" x1="0%" y1="0%" x2="0%" y2="100%">
            <stop offset="0%" stop-color="#ee592f"/>
            <stop offset="100%" stop-color="#db2855"/>
        </linearGradient>
    </defs>

    <g transform="translate(0.000000,487.000000) scale(0.100000,-0.100000)"
       fill="url(#topToBottomGradient)" stroke="none">
        <path d="M1770 3680 l-145 -5 -3 -157 -3 -157 43 -28 43 -28 520 -6 c563 -6
551 -5 685 -65 102 -46 214 -144 255 -224 48 -94 71 -239 54 -350 -31 -207
-162 -371 -384 -481 -91 -45 -106 -49 -170 -49 -74 0 -115 8 -207 42 -37 13
-58 26 -58 36 0 8 44 92 98 186 117 204 119 208 132 292 45 281 -221 544 -502
496 -180 -31 -319 -158 -364 -333 -13 -49 -15 -87 -10 -164 8 -129 41 -242
111 -380 30 -60 55 -113 55 -118 0 -4 -45 -84 -100 -178 -55 -94 -100 -172
-100 -174 0 -2 -26 -48 -58 -102 -109 -182 -269 -458 -286 -490 -10 -21 -16
-57 -16 -103 l0 -70 153 -2 c83 0 164 -2 179 -3 36 -3 40 1 75 65 17 30 54 96
83 145 93 160 261 449 292 505 56 98 84 140 95 140 6 0 33 -11 60 -24 72 -36
176 -63 288 -76 222 -25 469 40 650 171 100 73 215 205 280 323 36 65 81 197
96 281 17 98 6 300 -21 394 -76 267 -255 481 -500 599 -123 59 -214 82 -355
88 -165 8 -788 10 -965 4z m485 -826 c14 -9 25 -24 25 -33 0 -19 -158 -291
-170 -291 -24 0 -51 188 -36 251 19 76 117 115 181 73z"/>
    </g>
</svg>